<?xml version="1.0" encoding="UTF-8"?>
<svg id="_Layer_1" data-name="Layer_1" xmlns="http://www.w3.org/2000/svg" version="1.1" xmlns:xlink="http://www.w3.org/1999/xlink" viewBox="0 0 512 512">
  <!-- Generator: Adobe Illustrator 29.4.0, SVG Export Plug-In . SVG Version: 2.1.0 Build 152)  -->
  <defs>
    <style>
      .st0 {
        fill: #99a1cf;
      }

      .st1 {
        fill: #352b68;
      }

      .st2 {
        fill: #d8d8d8;
      }

      .st3 {
        fill: #c4c4c4;
      }

      .st4 {
        fill: #223d94;
      }

      .st5 { fill: url(#_Unnamed_Gradient_9); }
      .st6 { fill: url(#_Unnamed_Gradient_11); }

      .st7 {
        fill: #f5f5f5;
      }
    </style>
    <radialGradient id="_Unnamed_Gradient_11" data-name="Unnamed Gradient 11" cx="256.01" cy="256.01" fx="256.01" fy="256.01" r="237.83" gradientUnits="userSpaceOnUse">
      <stop offset="0" stop-color="#fff"/>
      <stop offset=".41" stop-color="#fbfbfb"/>
      <stop offset=".76" stop-color="#f1f1f1"/>
      <stop offset="1" stop-color="#e5e5e5"/>
    </radialGradient>
    <linearGradient id="_Unnamed_Gradient_9" data-name="Unnamed Gradient 9" x1="0" y1="9.09" x2="512" y2="9.09" gradientUnits="userSpaceOnUse">
      <stop offset="0" stop-color="#e2e2e2"/>
      <stop offset=".86" stop-color="#fafafa"/>
      <stop offset="1" stop-color="#fff"/>
    </linearGradient>
  </defs>
  <g>
    <polygon class="st7" points="18.18 18.18 18.18 493.84 0 512 0 0 18.18 18.18"/>
    <polygon class="st3" points="512 512 0 512 18.18 493.84 493.84 493.84 512 512"/>
    <polygon class="st2" points="512 0 512 512 493.84 493.84 493.84 18.18 512 0"/>
    <rect class="st6" x="18.18" y="18.18" width="475.66" height="475.66"/>
    <polygon class="st5" points="512 0 493.84 18.18 18.18 18.18 0 0 512 0"/>
  </g>
  <g>
    <path class="st0" d="M340.02,343.43c-27.78,41.45-107.5,44.62-125.06,40.3,143.34-4.04,119.73-91.24,119.73-91.24,0,0-13.53,25.91-27.34,27.92,20.14-19.29,16.4-42.89,16.4-42.89,0,0-10.65,12.1-23.59,16.75-39.76,15.56-67.75-2.8-68.88-3.56,1.94.52,77.97,20.62,83.75-40.65l-110.77,10.96h-.01s0,.01.01.01c0,0-40.82,44.12,1.21,96.23-16.03-12.98-23.45-27.37-26.43-34.74,0,0-22.74,25.22-12.95,52.27,9.79,27.06,42.62,35.07,71.39,26.46,96.2,19.23,108.74-43.13,102.55-57.81ZM238.56,357.25s19.57,2.96,34.92-9.12c-6.53,18.04-28.22,17.85-34.92,9.12ZM204.27,261.05c5.73,5.42,12.39,9.85,19.74,13.02,1.77,6.2,4.24,11.71,7.24,16.63,15,24.7,43.23,34.5,63.15,42.66-73.44-20.39-89.64-70.74-90.13-72.3Z"/>
    <path class="st4" d="M237.47,401.24c-23.86,9.21-54.41,5.75-69.37-14.59-14.97-20.34-8.06-54.49,9.21-69.08,0,0,.47,1.85,1.73,4.94,0,0-22.74,25.22-12.95,52.27,9.79,27.06,42.62,35.07,71.39,26.46Z"/>
    <path class="st4" d="M294.4,333.35c-73.44-20.39-89.64-70.74-90.13-72.3,5.73,5.42,12.39,9.85,19.74,13.02,1.77,6.2,4.24,11.71,7.24,16.63,15,24.7,43.23,34.5,63.15,42.66Z"/>
    <path class="st4" d="M349.08,377.68c-20.14,49.13-93.54,28.4-111.61,23.56,96.2,19.23,108.74-43.13,102.55-57.81-27.78,41.45-107.5,44.62-125.06,40.3,143.34-4.04,119.73-91.24,119.73-91.24,0,0-13.53,25.91-27.34,27.92,20.14-19.29,16.4-42.89,16.4-42.89,0,0-10.65,12.1-23.59,16.75-39.76,15.56-67.75-2.8-68.88-3.56,1.94.52,77.97,20.62,83.75-40.65,19.52,14.99,35.35,56,28.32,81.33,9.46,8.83,11.12,34.59,5.74,46.29Z"/>
    <path class="st4" d="M205.47,357.25c-22.75-18.42-28.16-39.68-28.16-39.68-3.8-36.02,26.22-56.07,26.94-56.56,0,0,0,.01.01.01,0,0-40.82,44.12,1.21,96.23Z"/>
    <path class="st4" d="M273.49,348.13c-6.53,18.04-28.22,17.85-34.92,9.12,0,0,19.57,2.96,34.92-9.12Z"/>
    <path class="st4" d="M315.03,250.06c-41.54,59.07-91.02,24.01-91.02,24.01,2.47,1.07,5.02,2,7.63,2.76,11.44,3.36,22.4,3.38,32.5,1.41,14.78-2.87,27.72-10.02,37.66-17.21,5.33-3.87,9.8-7.73,13.22-10.97Z"/>
    <g>
      <path class="st0" d="M338.77,236.12c-9.36,11.52-15.88,5.76-15.88,5.76,0,0-2.81,3.4-7.86,8.17-3.43,3.24-7.89,7.1-13.22,10.97-9.94,7.19-22.88,14.34-37.66,17.21-10.1,1.97-21.06,1.95-32.5-1.41-2.62-.77-5.16-1.69-7.63-2.76-7.35-3.17-14.01-7.6-19.74-13.02t-.01-.02s-.01-.01-.01-.01c-8.3-7.87-14.62-17.81-18.15-28.99-3.71-11.72-5.25-26.86-2.71-45.59,4.18-30.75,11.99-50.71,21.46-60.91h.01c.54-.44,20.04-15.85,32.6,24.63,4.19-28.92,18.17-43.41,29.52-40.97,19.07,4.13,7.44,55.87,7.44,55.87.55-1.48,10.18-27.16,26.57-23.48,13.26,2.98,5.63,21.63,5.63,21.63-6.91,20.48,0,29.25,0,29.25-1.4-16.28,8.8-29.42,17.11-26.02,1.78.73,3.02,2.32,3.55,4.17,2.99,10.66-7.89,26.05-8.36,26.73.57-.42,11.78-8.71,15.33-4.88,7.53,8.16-22.06,16.4-21.87,34.83,3.83-7.68,15.49-11.89,15.49-11.89,14.59-6.53,20.23,9.21,10.89,20.72Z"/>
      <path class="st1" d="M233.69,222.87c0,7.87-5.13,14.24-11.45,14.24s-11.45-6.37-11.45-14.24c0-7.34,4.46-13.39,10.2-14.16.03,0,.07-.01.1-.01.38-.06.77-.08,1.15-.08,5.15,0,9.51,4.24,10.95,10.07.33,1.32.51,2.73.51,4.18Z"/>
      <path class="st1" d="M249.15,243.89s-.38,6.08-7.55,5.4c-3.27-.32-6.32-1.83-7.14-5.23-.49-2.05-.21-4.27.55-6.4.49-1.39.95-2.8,1.16-4.27.88-6.17-.62-11.01-2.99-14.71-1.43-5.83-5.79-10.07-10.95-10.07-.38,0-.77.02-1.15.08,13.66-1.99,21.01,10.18,18.7,20.18-.24,1.05-.52,2.1-.66,3.17-.48,3.78-3.16,9.51.79,12.05,3.37,2.18,9.23-.2,9.23-.2Z"/>
      <ellipse class="st1" cx="266.99" cy="223.26" rx="11.45" ry="14.24"/>
      <path class="st1" d="M265.75,209.1s19.29,7.4,14.22,27.62c10.09-9.66,3.29-30.23-14.22-27.62Z"/>
      <ellipse class="st1" cx="249.15" cy="261.02" rx="4.32" ry="3.75"/>
      <path class="st1" d="M201.86,199.76s2.3-13.43,20.53-8.83c-6.72.77-14.2,1.54-20.53,8.83Z"/>
      <path class="st1" d="M284.68,202.26s-2.3-13.43-20.53-8.83c6.72.77,14.2,1.54,20.53,8.83Z"/>
      <path class="st4" d="M327.88,215.4s-11.66,4.22-15.49,11.89c-.19-18.43,29.4-26.67,21.87-34.83-3.55-3.83-14.76,4.46-15.33,4.88.47-.68,11.35-16.06,8.36-26.73-.53-1.85-1.77-3.44-3.55-4.17-8.31-3.4-18.51,9.74-17.11,26.02,0,0-6.91-8.77,0-29.25,0,0,7.63-18.66-5.63-21.63-16.39-3.67-26.02,22-26.57,23.48,0,0,11.63-51.74-7.44-55.87-11.35-2.45-25.33,12.05-29.52,40.97-12.56-40.48-32.06-25.07-32.6-24.64,2.89-3.11,5.92-5.31,9.05-6.64,5.21-2.21,11.34-.94,15.06,3.34,4.68,5.37,6.52,12.99,6.8,14.9,2.78-13.81,14.81-37.69,35.31-34.54,18.34,2.83,12.88,37.03,12.67,38.35.35-.7,5.97-11.92,17.46-11.99,4.41-.03,8.68,2,11.09,5.69,5.47,8.35,4.31,22.77,2.14,30.5,6.52-15.34,24.27-2.39,13.04,21.5,13.82-7.2,19.19,18.8.38,28.78Z"/>
    </g>
  </g>
</svg>